<svg id="Layer_1" data-name="Layer 1" xmlns="http://www.w3.org/2000/svg" viewBox="0 0 100 100"><defs><style>.cls-1{fill:#009ddb;}</style></defs><title>icon-bridge</title><path class="cls-1" d="M57.84,24.51a14,14,0,0,0-3.16.52,19.29,19.29,0,0,1-4.68.7,19.29,19.29,0,0,1-4.68-.7,14,14,0,0,0-3.16-.52c-2.29,0-8.82,1.8-8.82,9.8a23.45,23.45,0,0,0,2.14,9.61,15.55,15.55,0,0,1,1.29,4.22c.11,1,26.35,1,26.46,0a15.55,15.55,0,0,1,1.29-4.22,23.45,23.45,0,0,0,2.14-9.61C66.67,26.31,60.13,24.51,57.84,24.51Zm4.86,18.67a27.86,27.86,0,0,0-1,2.9H38.34a27.86,27.86,0,0,0-1-2.9,21.47,21.47,0,0,1-2-8.87c0-6.4,5.08-7.84,6.86-7.84a12.46,12.46,0,0,1,2.7.47A20.94,20.94,0,0,0,50,27.7a20.94,20.94,0,0,0,5.14-.76,12.46,12.46,0,0,1,2.7-.47c1.78,0,6.86,1.44,6.86,7.84A21.47,21.47,0,0,1,62.71,43.18Z"/><path class="cls-1" d="M91.18,24.51A14,14,0,0,0,88,25a19.29,19.29,0,0,1-4.68.7,19.29,19.29,0,0,1-4.68-.7,14,14,0,0,0-3.16-.52c-2.29,0-8.82,1.8-8.82,9.8a23.45,23.45,0,0,0,2.14,9.61,15.55,15.55,0,0,1,1.29,4.22c.11,1,.19,2.33.29,3.82a103,103,0,0,0,1.49,13.21c1,4.85,1.65,8.36,4.17,8.36,2.17,0,2.71-3.45,3.39-7.82.14-.91.28-1.83.44-2.69.5-2.72,1.66-9.1,3.45-9.1s2.95,6.38,3.45,9.1c.16.86.3,1.78.44,2.69.68,4.37,1.22,7.82,3.39,7.82,2.52,0,3.21-3.51,4.17-8.36A103,103,0,0,0,96.27,52c.1-1.49.18-2.79.29-3.82a15.55,15.55,0,0,1,1.29-4.22A23.45,23.45,0,0,0,100,34.31C100,26.31,93.47,24.51,91.18,24.51Zm1.69,40.28c-.55,2.8-1.3,6.6-2.18,6.77-.64-.55-1.19-4-1.52-6.15-.14-.93-.29-1.86-.45-2.74-.83-4.52-2-10.71-5.38-10.71S78.78,58.15,78,62.67c-.16.88-.31,1.81-.45,2.74-.33,2.11-.87,5.6-1.52,6.15-.88-.17-1.63-4-2.18-6.77a101.23,101.23,0,0,1-1.45-13c-.1-1.47-.18-2.74-.29-3.79h1.47a2.94,2.94,0,0,0,2.94-2.94v-9.8a1,1,0,0,1,1-1H89.22a1,1,0,0,1,1,1v9.8A2.94,2.94,0,0,0,93.14,48H94.6c-.11,1.05-.19,2.32-.29,3.79A101.23,101.23,0,0,1,92.86,64.79ZM96,43.18a27.86,27.86,0,0,0-1,2.9H93.14a1,1,0,0,1-1-1v-9.8a2.94,2.94,0,0,0-2.94-2.94H77.45a2.94,2.94,0,0,0-2.94,2.94v9.8a1,1,0,0,1-1,1H71.67a27.86,27.86,0,0,0-1-2.9,21.47,21.47,0,0,1-2-8.87c0-6.4,5.08-7.84,6.86-7.84a12.46,12.46,0,0,1,2.7.47,20.94,20.94,0,0,0,5.14.76,20.94,20.94,0,0,0,5.14-.76,12.46,12.46,0,0,1,2.7-.47C93,26.47,98,27.91,98,34.31A21.47,21.47,0,0,1,96,43.18Z"/><path class="cls-1" d="M24.51,24.51a14,14,0,0,0-3.16.52,19.29,19.29,0,0,1-4.68.7A19.29,19.29,0,0,1,12,25a14,14,0,0,0-3.16-.52c-2.29,0-8.82,1.8-8.82,9.8a23.45,23.45,0,0,0,2.14,9.61,15.55,15.55,0,0,1,1.29,4.22c.11,1,.19,2.33.29,3.82A103,103,0,0,0,5.21,65.17c1,4.85,1.65,8.36,4.17,8.36,2.17,0,2.71-3.45,3.39-7.82.14-.91.28-1.83.44-2.69.5-2.72,1.66-9.1,3.45-9.1s2.95,6.38,3.45,9.1c.16.86.3,1.78.44,2.69.68,4.37,1.22,7.82,3.39,7.82,2.52,0,3.21-3.51,4.17-8.36A103,103,0,0,0,29.61,52c.1-1.49.18-2.79.29-3.82a15.55,15.55,0,0,1,1.29-4.22,23.45,23.45,0,0,0,2.14-9.61C33.33,26.31,26.8,24.51,24.51,24.51ZM26.2,64.79c-.55,2.8-1.3,6.6-2.18,6.77-.64-.55-1.19-4-1.52-6.15-.14-.93-.29-1.86-.45-2.74-.83-4.52-2-10.71-5.38-10.71s-4.55,6.19-5.38,10.71c-.16.88-.31,1.81-.45,2.74-.33,2.11-.87,5.6-1.52,6.15-.88-.17-1.63-4-2.18-6.77a101.23,101.23,0,0,1-1.45-13c-.1-1.47-.18-2.74-.29-3.79H6.86A2.94,2.94,0,0,0,9.8,45.1v-9.8a1,1,0,0,1,1-1H22.55a1,1,0,0,1,1,1v9.8A2.94,2.94,0,0,0,26.47,48h1.47c-.11,1.05-.19,2.32-.29,3.79A101.23,101.23,0,0,1,26.2,64.79Zm3.18-21.61a27.86,27.86,0,0,0-1,2.9H26.47a1,1,0,0,1-1-1v-9.8a2.94,2.94,0,0,0-2.94-2.94H10.78a2.94,2.94,0,0,0-2.94,2.94v9.8a1,1,0,0,1-1,1H5a27.86,27.86,0,0,0-1-2.9,21.47,21.47,0,0,1-2-8.87c0-6.4,5.08-7.84,6.86-7.84a12.46,12.46,0,0,1,2.7.47,20.94,20.94,0,0,0,5.14.76,20.94,20.94,0,0,0,5.14-.76,12.46,12.46,0,0,1,2.7-.47c1.78,0,6.86,1.44,6.86,7.84A21.47,21.47,0,0,1,29.37,43.18Z"/></svg>