<svg id="Layer_1" data-name="Layer 1" xmlns="http://www.w3.org/2000/svg" viewBox="0 0 100 100"><defs><style>.cls-1{fill:#009ddb;}</style></defs><title>icon-crown</title><path class="cls-1" d="M66,0a28.46,28.46,0,0,0-6.45,1.07A39.35,39.35,0,0,1,50,2.5a39.35,39.35,0,0,1-9.55-1.43A28.46,28.46,0,0,0,34,0C29.33,0,16,3.67,16,20c0,8.87,2.43,14.82,4.38,19.6A31.73,31.73,0,0,1,23,48.21c.22,2.11.39,4.75.59,7.8a210.06,210.06,0,0,0,3,26.94c2,9.9,3.36,17.05,8.51,17.05,4.43,0,5.53-7,6.92-15.95.29-1.86.58-3.73.9-5.48C44,73,46.36,60,50,60s6,13,7,18.57c.32,1.76.61,3.63.9,5.48C59.33,93,60.42,100,64.86,100c5.14,0,6.55-7.15,8.51-17.05A210.06,210.06,0,0,0,76.4,56c.2-3,.37-5.68.59-7.8a31.73,31.73,0,0,1,2.64-8.61C81.57,34.82,84,28.87,84,20,84,3.67,70.67,0,66,0Zm3.44,82.17C68.31,87.88,66.78,95.64,65,96c-1.31-1.13-2.42-8.26-3.09-12.55-.29-1.89-.59-3.8-.92-5.59C59.28,68.63,57,56,50,56S40.72,68.63,39,77.85c-.33,1.79-.62,3.69-.92,5.59C37.44,87.73,36.33,94.86,35,96c-1.8-.35-3.33-8.11-4.46-13.82a206.5,206.5,0,0,1-3-26.43c-.2-3-.37-5.59-.59-7.74h3a6,6,0,0,0,6-6V22a2,2,0,0,1,2-2H62a2,2,0,0,1,2,2V42a6,6,0,0,0,6,6h3c-.22,2.15-.39,4.74-.59,7.74A206.5,206.5,0,0,1,69.44,82.17Zm6.48-44.08A56.84,56.84,0,0,0,73.79,44H70a2,2,0,0,1-2-2V22a6,6,0,0,0-6-6H38a6,6,0,0,0-6,6V42a2,2,0,0,1-2,2H26.21a56.84,56.84,0,0,0-2.13-5.91C22.17,33.4,20,28.08,20,20,20,6.94,30.37,4,34,4a25.41,25.41,0,0,1,5.51,1A42.71,42.71,0,0,0,50,6.5,42.71,42.71,0,0,0,60.49,5,25.41,25.41,0,0,1,66,4c3.63,0,14,2.94,14,16C80,28.08,77.83,33.4,75.92,38.09Z"/></svg>