<svg id="Layer_1" data-name="Layer 1" xmlns="http://www.w3.org/2000/svg" viewBox="0 0 100 100"><defs><style>.cls-1{fill:#009ddb;}</style></defs><title>icon-implant</title><path class="cls-1" d="M66,64H34a2,2,0,0,0,0,4H66a2,2,0,0,0,0-4Z"/><path class="cls-1" d="M66,72H34a2,2,0,0,0,0,4H66a2,2,0,0,0,0-4Z"/><path class="cls-1" d="M66,84a2,2,0,0,0,0-4H34a2,2,0,0,0,0,4Z"/><path class="cls-1" d="M66,92a2,2,0,0,0,0-4H34a2,2,0,0,0,0,4Z"/><path class="cls-1" d="M60,100a2,2,0,0,0,0-4H40a2,2,0,0,0,0,4Z"/><path class="cls-1" d="M66,60H34a2,2,0,0,1-2-2V54.88c0-3.69-1.23-4.57-2.57-5C23.09,48,16,34.84,16,20,16,3.67,29.33,0,34,0a28.4,28.4,0,0,1,6.45,1.07A39.4,39.4,0,0,0,50,2.5a39.4,39.4,0,0,0,9.55-1.43A28.4,28.4,0,0,1,66,0c4.67,0,18,3.67,18,20,0,14.84-7.09,28-13.43,29.92-1.33.4-2.57,1.27-2.57,5V58A2,2,0,0,1,66,60ZM36,56H64V54.88c0-4.77,1.83-7.73,5.43-8.8C73.69,44.82,80,33.31,80,20,80,6.94,69.63,4,66,4a25.47,25.47,0,0,0-5.51,1A42.66,42.66,0,0,1,50,6.5,42.66,42.66,0,0,1,39.51,5,25.47,25.47,0,0,0,34,4C30.37,4,20,6.94,20,20c0,13.31,6.31,24.82,10.57,26.08,3.6,1.07,5.43,4,5.43,8.8Z"/></svg>