<svg xmlns="http://www.w3.org/2000/svg" xmlns:xlink="http://www.w3.org/1999/xlink" version="1.1" x="0px" y="0px" viewBox="375.195 233.465 100 125" enable-background="new 375.195 233.465 100 100" xml:space="preserve"><g><path d="M439.448,260.489c1.366-4.752,5.013-14.024,3.711-20.182c-0.804-3.802-2.897-5.59-4.972-6.342   c-4.776-1.739-7.861,1.612-12.991,1.612c-5.129,0-8.215-3.352-12.995-1.612c-2.072,0.752-4.166,2.54-4.97,6.342   c-1.301,6.158,2.345,15.43,3.711,20.182H439.448z"/><g><path d="M435.095,302.57c0.343-2.77,0.654-5.557,0.937-8.295l-21.149,5.16c0.304,2.624,0.634,5.25,0.993,7.825L435.095,302.57z"/><path d="M413.323,283.686c0.211,2.508,0.45,5.162,0.719,7.889l22.777-5.559c0.257-2.936,0.479-5.711,0.664-8.228L413.323,283.686z    "/><path d="M438.039,269.586c0.178-2.9,0.261-4.619,0.261-4.619h-26.271c0,0,0.212,4.314,0.677,10.802L438.039,269.586z"/><path d="M420.859,330.244c1.279,3.238,2.716,3.221,4.327,3.221c1.964,0,3.671-0.923,5.143-5.533L420.859,330.244z"/><path d="M432.475,319.343c0.53-2.634,1.021-5.476,1.473-8.427l-16.867,4.117c0.476,2.738,0.99,5.329,1.543,7.689L432.475,319.343z    "/></g></g><text x="375.195" y="348.46500000000003" fill="#000000" font-size="5px" font-weight="bold" font-family="'Helvetica Neue', Helvetica, Arial-Unicode, Arial, Sans-serif">Created by Ervin Bolat</text><text x="375.195" y="353.46500000000003" fill="#000000" font-size="5px" font-weight="bold" font-family="'Helvetica Neue', Helvetica, Arial-Unicode, Arial, Sans-serif">from the Noun Project</text></svg>