<svg id="Layer_1" data-name="Layer 1" xmlns="http://www.w3.org/2000/svg" viewBox="0 0 100 100"><defs><style>.cls-1{fill:#009ddb;}</style></defs><title>icon-teeth</title><path class="cls-1" d="M89,31c-2.18,0-8.69,1.76-10.53,22H77.09c-2.47-18.84-9-22-13.09-22S53.38,34.16,50.91,53H49.09l.44,4h.93c-.21,2.37-.37,4.94-.46,7.75a4.18,4.18,0,0,0,1.16,3A3.94,3.94,0,0,0,54,69H74a3.94,3.94,0,0,0,2.85-1.21,4.18,4.18,0,0,0,1.16-3c-.09-2.81-.25-5.38-.46-7.75h.66c-.1,1.86-.17,3.84-.19,6a3.82,3.82,0,0,0,1.18,2.79A4.45,4.45,0,0,0,82.28,67h.17a73,73,0,0,0,14.34-1.78h0A4.44,4.44,0,0,0,100,61C99.8,36.2,93.91,31,89,31ZM54,64.88c.08-2.59.75-9.25,1-11.88,1.39-9.74,4.22-18,9-18s7.59,8.23,9,18c.26,2.66.91,9.37,1,12Zm41.81-3.54A69.27,69.27,0,0,1,82.3,63L82,63s0,0,0,0c0-2.17.11-4.13.21-6l.3-4C83.92,38.36,87.82,35,89,35c3.13,0,6.84,6.81,7,26A.65.65,0,0,1,95.81,61.34Z"/><path class="cls-1" d="M45,53.3l.06.62A.38.38,0,0,0,45,53.3Z"/><path class="cls-1" d="M49.53,57l-.44-4c-2.47-18.84-9-22-13.09-22S25.38,34.16,22.91,53H21.53C19.69,32.76,13.18,31,11,31,6.09,31,.2,36.2,0,61a4.44,4.44,0,0,0,3.21,4.23h0A73,73,0,0,0,17.55,67h.18a4.45,4.45,0,0,0,3.1-1.23A3.82,3.82,0,0,0,22,63c0-2.14-.09-4.11-.19-6h.66c-.21,2.37-.37,4.94-.46,7.75a4.18,4.18,0,0,0,1.16,3A3.94,3.94,0,0,0,26,69H46a3.94,3.94,0,0,0,2.85-1.21,4.18,4.18,0,0,0,1.16-3C49.91,61.94,49.75,59.37,49.53,57ZM17.7,63a69.26,69.26,0,0,1-13.5-1.66A.65.65,0,0,1,4,61c.16-19.2,3.87-26,7-26,1.18,0,5.09,3.37,6.51,18l.3,4c.11,1.83.19,3.76.22,5.9C18,62.92,17.94,63,17.7,63ZM26,65v-.12c.08-2.59.75-9.25,1-11.88,1.39-9.74,4.22-18,9-18s7.59,8.23,9,18l0,.3a.38.38,0,0,1,.06.62c.3,3,.85,8.72.92,11.09Z"/></svg>