<svg id="Layer_1" data-name="Layer 1" xmlns="http://www.w3.org/2000/svg" viewBox="0 0 100 100"><defs><style>.cls-1{fill:#009ddb;}</style></defs><title>icon-bridge</title><path class="cls-1" d="M57.84 24.51a14 14 0 0 0-3.16.52 19.29 19.29 0 0 1-4.68.7 19.29 19.29 0 0 1-4.68-.7 14 14 0 0 0-3.16-.52c-2.29 0-8.82 1.8-8.82 9.8a23.45 23.45 0 0 0 2.14 9.61 15.55 15.55 0 0 1 1.29 4.22c.11 1 26.35 1 26.46 0a15.55 15.55 0 0 1 1.29-4.22 23.45 23.45 0 0 0 2.14-9.61c.01-8-6.53-9.8-8.82-9.8zm4.86 18.67a27.86 27.86 0 0 0-1 2.9H38.34a27.86 27.86 0 0 0-1-2.9 21.47 21.47 0 0 1-2-8.87c0-6.4 5.08-7.84 6.86-7.84a12.46 12.46 0 0 1 2.7.47 20.94 20.94 0 0 0 5.1.76 20.94 20.94 0 0 0 5.14-.76 12.46 12.46 0 0 1 2.7-.47c1.78 0 6.86 1.44 6.86 7.84a21.47 21.47 0 0 1-1.99 8.87z"/><path class="cls-1" d="M91.18 24.51A14 14 0 0 0 88 25a19.29 19.29 0 0 1-4.68.7 19.29 19.29 0 0 1-4.68-.7 14 14 0 0 0-3.16-.52c-2.29 0-8.82 1.8-8.82 9.8a23.45 23.45 0 0 0 2.14 9.61 15.55 15.55 0 0 1 1.29 4.22c.11 1 .19 2.33.29 3.82a103 103 0 0 0 1.49 13.21c1 4.85 1.65 8.36 4.17 8.36 2.17 0 2.71-3.45 3.39-7.82.14-.91.28-1.83.44-2.69.5-2.72 1.66-9.1 3.45-9.1s2.95 6.38 3.45 9.1c.16.86.3 1.78.44 2.69.68 4.37 1.22 7.82 3.39 7.82 2.52 0 3.21-3.51 4.17-8.36A103 103 0 0 0 96.27 52c.1-1.49.18-2.79.29-3.82a15.55 15.55 0 0 1 1.29-4.22 23.45 23.45 0 0 0 2.15-9.65c0-8-6.53-9.8-8.82-9.8zm1.69 40.28c-.55 2.8-1.3 6.6-2.18 6.77-.64-.55-1.19-4-1.52-6.15-.14-.93-.29-1.86-.45-2.74-.83-4.52-2-10.71-5.38-10.71S78.78 58.15 78 62.67c-.16.88-.31 1.81-.45 2.74-.33 2.11-.87 5.6-1.52 6.15-.88-.17-1.63-4-2.18-6.77a101.23 101.23 0 0 1-1.45-13c-.1-1.47-.18-2.74-.29-3.79h1.47a2.94 2.94 0 0 0 2.94-2.94v-9.8a1 1 0 0 1 1-1h11.7a1 1 0 0 1 1 1v9.8A2.94 2.94 0 0 0 93.14 48h1.46c-.11 1.05-.19 2.32-.29 3.79a101.23 101.23 0 0 1-1.45 13zM96 43.18a27.86 27.86 0 0 0-1 2.9h-1.86a1 1 0 0 1-1-1v-9.8a2.94 2.94 0 0 0-2.94-2.94H77.45a2.94 2.94 0 0 0-2.94 2.94v9.8a1 1 0 0 1-1 1h-1.84a27.86 27.86 0 0 0-1-2.9 21.47 21.47 0 0 1-2-8.87c0-6.4 5.08-7.84 6.86-7.84a12.46 12.46 0 0 1 2.7.47 20.94 20.94 0 0 0 5.14.76 20.94 20.94 0 0 0 5.14-.76 12.46 12.46 0 0 1 2.7-.47c1.79 0 6.79 1.44 6.79 7.84a21.47 21.47 0 0 1-2 8.87zM24.51 24.51a14 14 0 0 0-3.16.52 19.29 19.29 0 0 1-4.68.7A19.29 19.29 0 0 1 12 25a14 14 0 0 0-3.16-.52c-2.29 0-8.82 1.8-8.82 9.8a23.45 23.45 0 0 0 2.14 9.61 15.55 15.55 0 0 1 1.29 4.22c.11 1 .19 2.33.29 3.82a103 103 0 0 0 1.47 13.24c1 4.85 1.65 8.36 4.17 8.36 2.17 0 2.71-3.45 3.39-7.82.14-.91.28-1.83.44-2.69.5-2.72 1.66-9.1 3.45-9.1s2.95 6.38 3.45 9.1c.16.86.3 1.78.44 2.69.68 4.37 1.22 7.82 3.39 7.82 2.52 0 3.21-3.51 4.17-8.36A103 103 0 0 0 29.61 52c.1-1.49.18-2.79.29-3.82a15.55 15.55 0 0 1 1.29-4.22 23.45 23.45 0 0 0 2.14-9.61c0-8.04-6.53-9.84-8.82-9.84zm1.69 40.28c-.55 2.8-1.3 6.6-2.18 6.77-.64-.55-1.19-4-1.52-6.15-.14-.93-.29-1.86-.45-2.74-.83-4.52-2-10.71-5.38-10.71s-4.55 6.19-5.38 10.71c-.16.88-.31 1.81-.45 2.74-.33 2.11-.87 5.6-1.52 6.15-.88-.17-1.63-4-2.18-6.77a101.23 101.23 0 0 1-1.45-13c-.1-1.47-.18-2.74-.29-3.79h1.46a2.94 2.94 0 0 0 2.94-2.9v-9.8a1 1 0 0 1 1-1h11.75a1 1 0 0 1 1 1v9.8a2.94 2.94 0 0 0 2.92 2.9h1.47c-.11 1.05-.19 2.32-.29 3.79a101.23 101.23 0 0 1-1.45 13zm3.18-21.61a27.86 27.86 0 0 0-1 2.9h-1.91a1 1 0 0 1-1-1v-9.8a2.94 2.94 0 0 0-2.94-2.94H10.78a2.94 2.94 0 0 0-2.94 2.94v9.8a1 1 0 0 1-1 1H5a27.86 27.86 0 0 0-1-2.9 21.47 21.47 0 0 1-2-8.87c0-6.4 5.08-7.84 6.86-7.84a12.46 12.46 0 0 1 2.7.47 20.94 20.94 0 0 0 5.14.76 20.94 20.94 0 0 0 5.14-.76 12.46 12.46 0 0 1 2.7-.47c1.78 0 6.86 1.44 6.86 7.84a21.47 21.47 0 0 1-2.03 8.87z"/></svg>