<svg xmlns="http://www.w3.org/2000/svg" viewBox="375.195 233.465 100 125"><path d="M439.448 260.49c1.366-4.753 5.013-14.025 3.71-20.183-.803-3.802-2.896-5.59-4.97-6.342-4.777-1.74-7.862 1.612-12.992 1.612-5.13 0-8.215-3.352-12.995-1.612-2.07.752-4.165 2.54-4.97 6.342-1.3 6.158 2.346 15.43 3.712 20.182h28.506zM435.095 302.57c.343-2.77.654-5.557.937-8.295l-21.15 5.16c.305 2.624.635 5.25.994 7.825l19.22-4.69zM413.323 283.686c.21 2.508.45 5.162.72 7.89l22.776-5.56c.256-2.936.478-5.71.663-8.228l-24.16 5.898zM438.04 269.586c.177-2.9.26-4.62.26-4.62h-26.27s.21 4.315.676 10.803l25.333-6.184zM420.86 330.244c1.278 3.238 2.715 3.22 4.326 3.22 1.964 0 3.67-.922 5.143-5.532l-9.47 2.312zM432.475 319.343c.53-2.634 1.02-5.476 1.473-8.427l-16.867 4.117c.477 2.738.99 5.33 1.544 7.69l13.85-3.38z"/><text x="375.195" y="348.465" font-size="5" font-weight="bold" font-family="'Helvetica Neue', Helvetica, Arial-Unicode, Arial, Sans-serif">Created by Ervin Bolat</text><text x="375.195" y="353.465" font-size="5" font-weight="bold" font-family="'Helvetica Neue', Helvetica, Arial-Unicode, Arial, Sans-serif">from the Noun Project</text></svg>