<svg id="Layer_1" data-name="Layer 1" xmlns="http://www.w3.org/2000/svg" viewBox="0 0 100 100"><defs><style>.cls-1{fill:#009ddb;}</style></defs><title>icon-smile</title><path class="cls-1" d="M100 37.08a2.8 2.8 0 0 0-.63-1.69 3 3 0 0 0-.21-.25A4.58 4.58 0 0 0 95.64 34a19 19 0 0 1-5.15-1.22c-.66-.22-1.33-.44-2-.66A71.52 71.52 0 0 1 80 28.74C74.88 26.41 69.55 24 62.27 24 55.54 24 51.9 26.31 50 28.36c-1.9-2-5.54-4.36-12.27-4.36-7.28 0-12.61 2.41-17.73 4.74a71.52 71.52 0 0 1-8.44 3.38c-.69.21-1.37.44-2 .66A18.89 18.89 0 0 1 4.36 34a4.65 4.65 0 0 0-3.47 1.1 3 3 0 0 0-.21.25A2.8 2.8 0 0 0 0 37.08a3.8 3.8 0 0 0 1.05 2.58c2.28 2.46 4.56 5.06 6.78 7.72.73.87 1.55 1.92 2.47 3.1C17.27 59.44 30.23 76 50 76s32.73-16.56 39.7-25.45c.92-1.17 1.74-2.22 2.46-3.09 2.24-2.68 4.52-5.28 6.79-7.72a3.8 3.8 0 0 0 1.05-2.59v-.07zm-87.29-1.14a74.46 74.46 0 0 0 8.91-3.56c5-2.26 9.69-4.38 16.11-4.38 8.67 0 10.3 4.42 10.35 4.58a2 2 0 0 0 3.83 0S53.54 28 62.27 28c6.42 0 11.13 2.13 16.11 4.38a74.44 74.44 0 0 0 8.91 3.56l1.89.61C79.34 38.73 62.49 42 50 42s-29.33-3.27-39.17-5.45zM83 42l-4.6 2.24c-1.32.65-2.65 1.34-4 2C67.33 49.88 59.37 54 50 54s-17.33-4.12-24.35-7.75c-1.37-.71-2.71-1.4-4-2L17 42c9.85 2 22.68 4 33 4s23.12-2.07 33-4zm6.12 2.93c-.75.9-1.6 2-2.54 3.19C79.54 57 67.82 72 50 72S20.46 57 13.46 48.08c-.95-1.21-1.79-2.29-2.55-3.19s-1.35-1.59-2-2.37c3.07 1.44 6.85 3.24 11 5.28 1.29.64 2.61 1.32 4 2C31.24 53.65 39.66 58 50 58s18.76-4.35 26.19-8.2c1.34-.69 2.66-1.37 4-2 4.13-2 7.91-3.83 11-5.27-.75.78-1.43 1.56-2.1 2.36z"/></svg>